PathFileType	4	(X/Y/Z)	C:\Users\Basilio\Documents\Thesis Gigler\squatting_fais\c3dfiles\044\SLS_back_pre2\markers_experimental.trc
DataRate	CameraRate	NumFrames	NumMarkers	Units	OrigDataRate	OrigDataStartFrame	OrigNumFrames
200.000000	200.000000	4	63	mm	200.000000	1086	1449
Frame#	Time	FHD			LBHD			RBHD			C7			T10			LSHO			LUUPA			LMUPA			LDUPA			LLEP			LMEP			LUL			LRFIN			RSHO			RUPA1			RMUPA			RDUPA			RLEP			RMEP			RUL			LASI			RASI			USACR			LSACR			RSACR			LTHI1			LTHI2			LTHI3			LTHI4			LLFC			LMFC			LTIB1			LTIB2			LTIB3			LTIB4			LLMAL			LMMAL			LHEE			LMT1			LMT2			LMT5			RTHI			RTHI2			RTHI3			RTHI4			RLFC			RMFC			RTIB1			RTIB2			RTIB3			RTIB4			RLMAL			RMMAL			RHEE			RMT1			RMT2			RMT5			RUFIN			CLAV			LRAD			RRAD			*61			*62			
		X1	Y1	Z1	X2	Y2	Z2	X3	Y3	Z3	X4	Y4	Z4	X5	Y5	Z5	X6	Y6	Z6	X7	Y7	Z7	X8	Y8	Z8	X9	Y9	Z9	X10	Y10	Z10	X11	Y11	Z11	X12	Y12	Z12	X13	Y13	Z13	X14	Y14	Z14	X15	Y15	Z15	X16	Y16	Z16	X17	Y17	Z17	X18	Y18	Z18	X19	Y19	Z19	X20	Y20	Z20	X21	Y21	Z21	X22	Y22	Z22	X23	Y23	Z23	X24	Y24	Z24	X25	Y25	Z25	X26	Y26	Z26	X27	Y27	Z27	X28	Y28	Z28	X29	Y29	Z29	X30	Y30	Z30	X31	Y31	Z31	X32	Y32	Z32	X33	Y33	Z33	X34	Y34	Z34	X35	Y35	Z35	X36	Y36	Z36	X37	Y37	Z37	X38	Y38	Z38	X39	Y39	Z39	X40	Y40	Z40	X41	Y41	Z41	X42	Y42	Z42	X43	Y43	Z43	X44	Y44	Z44	X45	Y45	Z45	X46	Y46	Z46	X47	Y47	Z47	X48	Y48	Z48	X49	Y49	Z49	X50	Y50	Z50	X51	Y51	Z51	X52	Y52	Z52	X53	Y53	Z53	X54	Y54	Z54	X55	Y55	Z55	X56	Y56	Z56	X57	Y57	Z57	X58	Y58	Z58	X59	Y59	Z59	X60	Y60	Z60	X61	Y61	Z61	X62	Y62	Z62	X63	Y63	Z63	

1087	5.43	-178.776123046875	1810.926513671875	-1006.330627441406	-309.2930297851563	1768.567993164063	-1086.045776367188	-352.9397888183594	1746.358276367188	-927.4282226562502	-359.9840698242188	1580.67236328125	-1019.089904785156	-379.2034606933594	1279.236450195313	-1006.630981445313	-259.1760864257813	1601.338745117188	-1158.44384765625	-94.74095916748048	1582.364013671875	-1256.28857421875	-67.17363739013673	1598.226196289063	-1217.304077148438	-26.34516716003419	1583.256469726563	-1257.209716796875	33.25228118896485	1586.313842773438	-1246.999389648438	29.83776855468751	1510.56640625	-1232.06396484375	274.4707336425782	1624.757934570313	-1099.322998046875	266.6250000000001	1648.69677734375	-998.151062011719	-280.3162231445313	1591.987060546875	-859.087829589844	-140.4410247802735	1587.5771484375	-741.2374877929689	-107.8422241210938	1602.588623046875	-778.040466308594	-72.12780761718751	1594.551513671875	-729.5460205078126	-10.28969287872315	1603.389892578125	-732.9009399414064	-3.031459093093873	1521.62353515625	-737.2554321289064	248.6440734863282	1637.632446289063	-843.5229492187502	-220.0718688964844	1057.653442382813	-1076.423217773438	-228.7725372314454	1078.262939453125	-863.0233154296877	-387.1997680664064	1135.562744140625	-981.3283691406252	-393.5970764160157	1099.33447265625	-1001.64111328125	-397.1744079589845	1113.930297851563	-946.2952880859377	-320.8410034179688	819.957702636719	-1126.31689453125	-284.1751098632813	742.9631347656251	-1128.558471679688	-235.3406677246094	747.4474487304689	-1125.66748046875	-306.6516723632813	690.5551757812501	-1109.679931640625	-277.8204345703126	533.9937133789064	-1092.70849609375	-270.9175720214844	532.1777954101564	-969.9907836914065	-258.0346679687501	361.4409484863282	-1011.993103027344	-282.3401794433594	311.6720581054688	-1081.246459960938	-252.6880187988282	311.6755065917969	-1043.490600585938	-272.6542663574219	235.7837066650391	-1011.783386230469	-325.8109130859376	120.1806182861328	-1055.527709960938	-307.9252624511719	128.2557983398438	-970.541442871094	-388.4186096191407	96.75527191162112	-1008.911437988281	-181.4164123535157	58.58012771606447	-984.8403930664065	-179.5560760498047	61.79783630371095	-1031.093627929688	-215.8446044921876	49.17807769775392	-1077.598022460938	-275.0757446289063	820.0480957031252	-751.2399291992189	-224.7253112792969	775.3897094726565	-748.8331909179689	-193.9391326904297	781.7590942382815	-758.5678100585939	-234.8671112060547	690.9674072265626	-754.1551513671876	-228.5565490722657	583.7505493164064	-750.1515502929689	-235.9965362548829	564.0247802734376	-868.5520629882815	-207.286849975586	448.3403320312501	-761.1755981445314	-291.2459106445313	397.2711181640626	-711.9724731445314	-251.8486785888672	381.3162231445313	-726.6088256835939	-250.6842803955079	326.4707031250001	-746.5661621093751	-344.6080932617188	187.5141296386719	-716.6862792968751	-321.1392211914063	188.0881958007813	-800.2506103515627	-407.5067443847657	162.2133026123047	-764.7382812500001	-206.2830047607422	99.54701232910159	-779.5291137695315	-200.8540954589844	96.28460693359378	-742.7682495117189	-243.5825958251954	85.43321228027345	-692.7632446289064	257.0228881835938	1615.72119140625	-959.0804443359377	nan	nan	nan	254.8548431396485	1582.560791015625	-1047.920776367188	nan	nan	nan	nan	nan	nan	nan	nan	nan	
1088	5.435	-179.0867462158203	1811.293090820313	-1005.870727539063	-309.8150024414063	1768.571533203125	-1085.346801757813	-353.2633972167969	1746.484008789063	-926.8038330078127	-360.4157714843751	1580.631103515625	-1018.517517089844	-379.2370605468751	1279.338500976563	-1006.075988769531	-259.3660888671876	1601.520629882813	-1157.897338867188	-95.0836868286133	1582.70556640625	-1255.886108398438	-67.5471649169922	1598.443237304688	-1216.883178710938	-26.71794128417969	1583.26806640625	-1256.7607421875	32.89646911621094	1586.444458007813	-1246.431884765625	29.53684806823731	1510.55224609375	-1231.619995117188	274.0796813964844	1625.0458984375	-1098.85986328125	266.1292419433594	1648.80810546875	-997.5845947265627	-280.7458190917969	1592.014038085938	-858.4617919921877	-140.9563446044922	1587.628295898438	-740.6055297851564	-108.4259567260742	1602.719482421875	-777.3433227539065	-72.58471679687501	1594.556640625	-728.9141845703126	-10.7578763961792	1603.68115234375	-732.3568725585939	-3.559184551239015	1521.91552734375	-736.7715454101564	248.331527709961	1637.944580078125	-843.1174926757815	-219.6372680664063	1057.83984375	-1076.272338867188	-228.390365600586	1078.30517578125	-862.8309326171877	-386.999969482422	1135.560791015625	-980.9321289062502	-394.286346435547	1098.815063476563	-1001.204956054688	-395.6383666992189	1112.60791015625	-945.907653808594	-320.7081909179688	820.1088867187502	-1126.053344726563	-284.1447753906251	743.0844726562501	-1128.322509765625	-235.2846679687501	747.4666748046876	-1125.427368164063	-306.5691528320313	690.6459960937501	-1109.482421875	-277.9081726074219	533.9823608398439	-1092.46630859375	-271.1385803222657	532.1198120117189	-969.750915527344	-258.1569213867188	361.3039245605469	-1011.894592285156	-282.4976806640626	311.7119140625001	-1081.229370117188	-252.7903900146485	311.7147521972657	-1043.416381835938	-273.0740051269532	235.8401031494141	-1011.743041992188	-325.7564697265626	120.1815948486328	-1055.48193359375	-307.8477478027344	128.1617889404297	-970.5078125000002	-388.4210815429689	96.756950378418	-1008.902038574219	-181.1578369140625	58.25470352172853	-984.4151611328127	-179.5414581298828	61.82740020751955	-1031.03125	-215.8099670410157	49.18528366088869	-1077.605102539063	-275.1273803710938	819.9815673828127	-751.0446166992189	-224.9391632080079	775.0213623046877	-748.6480712890626	-194.0461730957032	781.3309326171877	-758.3689575195314	-235.2906494140626	690.7958984375001	-753.8925170898439	-228.9876098632813	583.4822387695314	-750.0570068359376	-236.7814636230469	563.6620483398439	-868.3762817382815	-207.3032836914063	448.0649414062501	-761.0048217773439	-290.8973083496094	396.4482727050782	-711.4754028320314	-251.4843750000001	380.8952026367188	-726.3321533203126	-250.221176147461	326.4619140625001	-745.9966430664064	-342.8825378417969	186.426254272461	-715.9920043945314	-319.8363037109376	187.2362213134766	-799.7171020507815	-405.6226501464845	160.7387390136719	-764.1162719726564	-204.3111572265626	98.95666503906253	-779.037536621094	-198.9455566406251	95.87783050537111	-742.4923706054689	-241.8077850341797	84.80484008789064	-692.4710083007814	256.5585632324219	1616.003540039063	-958.5272216796877	nan	nan	nan	254.3155517578126	1582.760375976563	-1047.25439453125	nan	nan	nan	nan	nan	nan	nan	nan	nan	
1089	5.44	-179.2601623535157	1811.400512695313	-1005.464782714844	-310.5029907226563	1768.627319335938	-1084.679565429688	-353.7645263671876	1746.495971679688	-926.068786621094	-361.0431518554688	1580.6279296875	-1017.76806640625	-379.1234741210938	1279.130737304688	-1005.461853027344	-259.3596191406251	1601.632080078125	-1157.280639648438	-95.51869964599611	1582.896362304688	-1255.334716796875	-67.70438385009767	1598.411499023438	-1216.219116210938	-27.21967697143555	1583.38232421875	-1256.234619140625	32.55538558959962	1586.434814453125	-1245.841674804688	29.23644065856934	1510.803466796875	-1231.1044921875	273.5879821777344	1625.47998046875	-1098.448974609375	265.6383666992188	1648.965576171875	-997.0154418945315	-281.2578125000001	1592.048095703125	-857.826599121094	-141.314682006836	1587.654541015625	-739.8582763671876	-108.8509216308594	1602.861450195313	-776.739440917969	-72.94931030273439	1594.850952148438	-728.2829589843751	-11.25043773651123	1603.773193359375	-731.6613159179689	-3.850695848464967	1521.86328125	-735.9538574218751	247.8460388183594	1638.28369140625	-842.4182739257815	-219.2353515625001	1058.060424804688	-1076.146606445313	-227.9176025390626	1078.311279296875	-862.6159667968752	-386.7448730468751	1135.621337890625	-980.5457153320315	-393.0659484863282	1099.454711914063	-1001.035888671875	-396.6611938476564	1113.777587890625	-945.6098632812502	-320.5364379882813	820.2630004882815	-1125.755859375	-284.0838012695313	743.2083129882814	-1128.091796875	-235.1564636230469	747.5182495117189	-1125.195434570313	-306.6849060058594	690.8452148437501	-1109.310546875	-278.0606689453126	533.9702148437501	-1092.303344726563	-271.4067382812501	531.9885253906251	-969.5054931640627	-258.3309936523438	361.2892761230469	-1011.835144042969	-282.5615539550782	311.7336425781251	-1081.119995117188	-252.9862670898438	311.8012084960938	-1043.432373046875	-273.2479858398438	235.7103881835938	-1011.711364746094	-325.8409423828126	120.1707839965821	-1055.542724609375	-307.8224792480469	128.1178588867188	-970.4819946289065	-388.4204101562501	96.75669860839847	-1008.871032714844	-181.205307006836	58.22507858276369	-984.4211425781252	-179.5264739990235	61.84025955200197	-1031.065307617188	-215.9221649169922	49.1742286682129	-1077.581665039063	-275.1426696777344	819.934265136719	-750.8630371093751	-225.1848907470704	774.7113037109377	-748.3657836914064	-194.1201782226563	780.9846191406252	-758.2444458007814	-236.1463165283204	690.6278076171876	-753.7024536132814	-229.7481079101563	583.0316772460939	-749.8826293945314	-237.7957611083985	563.2465209960939	-868.2288818359377	-207.3477935791016	448.041961669922	-760.7098388671876	-290.4727478027344	395.8440246582032	-711.0147705078126	-250.9000396728516	380.2456970214844	-725.9951171875001	-249.6471405029297	326.0026245117188	-746.2428588867189	-341.5711669921876	185.5245666503907	-715.7384033203126	-318.4536132812501	186.3263244628907	-799.2695922851565	-404.2579956054689	159.7034912109375	-763.3586425781251	-202.6385345458985	98.60517120361331	-778.6958618164065	-197.2234649658204	95.34349822998048	-742.1341552734376	-239.6292114257813	83.7813186645508	-692.0183105468751	256.0836791992188	1616.147094726563	-958.1025390625002	nan	nan	nan	253.7421569824219	1583.119018554688	-1046.67919921875	nan	nan	nan	nan	nan	nan	nan	nan	nan	
1090	5.445	-180.1725158691407	1811.662475585938	-1004.791381835938	-311.0057373046876	1768.771362304688	-1084.027709960938	-354.4007263183594	1746.501586914063	-925.341003417969	-361.6050109863282	1580.756713867188	-1017.196960449219	-379.1669006347657	1278.953735351563	-1004.954162597656	-260.3344726562501	1601.781005859375	-1156.685791015625	-96.02127075195315	1582.954956054688	-1254.743530273438	-68.31690979003908	1598.59326171875	-1215.548583984375	-27.69846153259278	1583.659545898438	-1255.632080078125	31.39195823669434	1587.55517578125	-1245.504028320313	28.85681915283204	1510.721801757813	-1230.572387695313	273.1240234375001	1625.679565429688	-1097.816162109375	265.2504577636719	1649.197998046875	-996.6180419921877	-281.7491760253907	1592.104248046875	-857.144470214844	-141.6918487548828	1587.927978515625	-739.9471435546876	-109.3046951293946	1602.80810546875	-776.0975341796877	-73.3539505004883	1594.95654296875	-727.7763671875001	-11.80364608764649	1604.036865234375	-731.0084228515626	-4.475325107574464	1522.031982421875	-735.2469482421876	247.4049987792969	1638.658081054688	-841.7889404296877	-218.9480590820313	1058.2685546875	-1075.943359375	-227.4164276123047	1078.275024414063	-862.4627075195315	-386.4259033203126	1135.472534179688	-980.1431274414065	-392.7235412597657	1099.280883789063	-1000.64404296875	-396.3885803222657	1113.758178710938	-945.2260742187502	-320.4782409667969	820.561218261719	-1125.435791015625	-283.9743041992188	743.3094482421876	-1127.794555664063	-235.1787109375001	747.5356445312501	-1124.886474609375	-306.6520996093751	691.0283203125001	-1109.168823242188	-278.0585937500001	533.9182739257814	-1092.20361328125	-271.5920104980469	532.0294799804689	-969.285095214844	-258.7414855957032	361.2991943359376	-1011.791625976563	-282.6940307617188	311.7717590332032	-1081.110961914063	-253.0180053710938	311.7456665039063	-1043.385131835938	-272.8384094238282	235.9069519042969	-1011.402221679688	-325.8314514160157	120.1633453369141	-1055.534423828125	-307.8839111328126	128.1273345947266	-970.5007324218752	-388.4202270507814	96.7488708496094	-1008.909973144531	-181.192626953125	58.25086975097658	-984.4143066406252	-179.5305328369141	61.820369720459	-1031.023315429688	-215.8556671142579	49.25574111938478	-1077.583251953125	-275.3624267578126	819.8609619140627	-750.6427612304689	-225.3849792480469	774.3611450195315	-748.1823730468751	-194.5752868652344	780.6406250000002	-757.8102416992189	-236.6028594970704	690.6546630859376	-753.7384033203126	-230.2943420410157	582.6980590820314	-749.6816406250001	-238.4386901855469	562.9687500000001	-868.0711059570315	-207.2962188720704	447.5948181152345	-760.7670898437501	-290.1820068359376	395.1479492187501	-710.6489257812501	-250.2510986328126	379.7656860351563	-725.5205078125001	-249.0198364257813	325.5430297851563	-745.9249267578126	-339.9996643066407	184.584945678711	-715.2049560546876	-317.1309204101563	185.4432525634766	-798.8125000000002	-402.6936035156251	158.4622650146485	-762.8782958984376	-201.1484527587891	98.45525360107425	-778.5745239257815	-195.5147399902344	94.84041595458986	-741.8930664062501	-237.4657440185547	83.63933563232423	-691.7273559570314	255.535140991211	1616.351806640625	-957.472106933594	nan	nan	nan	253.3860168457032	1583.24560546875	-1046.138916015625	nan	nan	nan	nan	nan	nan	nan	nan	nan	
